<svg xmlns="http://www.w3.org/2000/svg" width="48" height="48"><path d="M16 36s-2.215-4-8-4-8 4-8 4v3h16zm0 0M48 36s-2.215-4-8-4-8 4-8 4v3h16zm0 0" fill="#455a64"/><path d="M10 29H6v3s-.121 2 1.96 2c2.083 0 2.04-2 2.04-2zm0 0M42 29h-4v3s-.121 2 1.96 2c2.083 0 2.04-2 2.04-2zm0 0" fill="#ff9800"/><path d="M8 31c-2.758 0-5-2.242-5-5s2.242-5 5-5 5 2.242 5 5-2.242 5-5 5M40 31c-2.758 0-5-2.242-5-5s2.242-5 5-5 5 2.242 5 5-2.242 5-5 5" fill="#ffb74d"/><path d="M7.781 19C5.344 19.219 3 20.93 3 24.574V26l1 1v-3l6.309-2.2L12 24v3l1-1v-1.203c0-2.414-.137-4.203-3-4.797l-.484-1zm0 0M39.781 19C37.344 19.219 35 20.93 35 24.574V26l1 1v-3l6.309-2.2L44 24v3l1-1v-1.203c0-2.414-.137-4.203-3-4.797l-.484-1zm0 0" fill="#424242"/><path d="M16 20.5c0-.8.7-1.5 1.5-1.5s1.5.7 1.5 1.5-.7 1.5-1.5 1.5-1.5-.7-1.5-1.5m13 0c0 .8.7 1.5 1.5 1.5s1.5-.7 1.5-1.5-.7-1.5-1.5-1.5-1.5.7-1.5 1.5" fill="#ffa726"/><path d="M20 29v-4h8v4s0 4-4 4-4-4-4-4zm0 0" fill="#ff9800"/><path d="M17 21.102C17 24.898 20.102 28 24 28s7-3.102 7-6.898v-4.403c0-3.8-14-5.898-14 0zm0 0" fill="#ffb74d"/><path d="M21.602 9l-.801 1.602C16.8 11.398 16 15 16 18.199V19l2 2v-4l2.8-3 9.2 3v4l2-2v-1.8c0-3.9-3.102-8.2-8-8.2zm0 0" fill="#424242"/><path d="M22 20c0 .602-.398 1-1 1s-1-.398-1-1 .398-1 1-1 1 .398 1 1m6 0c0-.602-.398-1-1-1s-1 .398-1 1 .398 1 1 1 1-.398 1-1" fill="#784719"/><path d="M20.3 29S12 30.602 12 39h24c0-8.5-8-10-8-10l-4 2-4-2" fill="#78909c"/><path d="M28 29l-4 1-4-1 4 9zm0 0" fill="#fff"/><path d="M26 32l-2-2-2 2 1 1-.3 2.102L24 38l1.3-2.898L25 33zm0 0" fill="#d32f2f"/></svg>